<mxfile host="app.diagrams.net" modified="2021-04-18T13:24:28.982Z" agent="5.0 (Windows NT 10.0; Win64; x64) AppleWebKit/537.36 (KHTML, like Gecko) Chrome/89.0.4389.128 Safari/537.36" etag="vRygdC_F0s8JWGmlDjtX" version="14.6.1" type="github">
  <diagram id="JX3tagbnlnf9axO_ppzA" name="Page-1">
    <mxGraphModel dx="1038" dy="523" grid="1" gridSize="10" guides="1" tooltips="1" connect="1" arrows="1" fold="1" page="1" pageScale="1" pageWidth="850" pageHeight="1100" math="0" shadow="0">
      <root>
        <mxCell id="0" />
        <mxCell id="1" parent="0" />
        <mxCell id="F-baasyLwbSTFGvHI9Eg-18" value="&lt;div style=&quot;text-align: right&quot;&gt;&lt;br&gt;&lt;/div&gt;&lt;div style=&quot;text-align: justify&quot;&gt;&lt;/div&gt;" style="rounded=1;whiteSpace=wrap;html=1;absoluteArcSize=1;arcSize=14;strokeWidth=2;fillColor=none;dashed=1;" parent="1" vertex="1">
          <mxGeometry x="320" y="220" width="190" height="140" as="geometry" />
        </mxCell>
        <mxCell id="F-baasyLwbSTFGvHI9Eg-11" style="edgeStyle=orthogonalEdgeStyle;rounded=0;orthogonalLoop=1;jettySize=auto;html=1;entryX=0;entryY=0.5;entryDx=0;entryDy=0;entryPerimeter=0;strokeWidth=4;" parent="1" source="F-baasyLwbSTFGvHI9Eg-1" target="F-baasyLwbSTFGvHI9Eg-2" edge="1">
          <mxGeometry relative="1" as="geometry" />
        </mxCell>
        <mxCell id="F-baasyLwbSTFGvHI9Eg-13" style="rounded=1;orthogonalLoop=1;jettySize=auto;html=1;exitX=0.25;exitY=0;exitDx=0;exitDy=0;entryX=0.75;entryY=1;entryDx=0;entryDy=0;strokeWidth=4;" parent="1" source="F-baasyLwbSTFGvHI9Eg-1" target="F-baasyLwbSTFGvHI9Eg-7" edge="1">
          <mxGeometry relative="1" as="geometry" />
        </mxCell>
        <mxCell id="F-baasyLwbSTFGvHI9Eg-15" style="edgeStyle=none;rounded=1;orthogonalLoop=1;jettySize=auto;html=1;exitX=0;exitY=0.25;exitDx=0;exitDy=0;strokeWidth=4;" parent="1" source="F-baasyLwbSTFGvHI9Eg-17" target="F-baasyLwbSTFGvHI9Eg-3" edge="1">
          <mxGeometry relative="1" as="geometry" />
        </mxCell>
        <mxCell id="F-baasyLwbSTFGvHI9Eg-16" style="edgeStyle=none;rounded=1;orthogonalLoop=1;jettySize=auto;html=1;exitX=0;exitY=1;exitDx=0;exitDy=0;strokeWidth=4;" parent="1" source="F-baasyLwbSTFGvHI9Eg-1" target="F-baasyLwbSTFGvHI9Eg-10" edge="1">
          <mxGeometry relative="1" as="geometry" />
        </mxCell>
        <mxCell id="F-baasyLwbSTFGvHI9Eg-1" value="Node-Red" style="rounded=1;whiteSpace=wrap;html=1;absoluteArcSize=1;arcSize=14;strokeWidth=2;fillColor=#ffe6cc;strokeColor=#d79b00;" parent="1" vertex="1">
          <mxGeometry x="380" y="230" width="120" height="120" as="geometry" />
        </mxCell>
        <mxCell id="F-baasyLwbSTFGvHI9Eg-2" value="OLED Display" style="strokeWidth=2;html=1;shape=mxgraph.flowchart.display;whiteSpace=wrap;" parent="1" vertex="1">
          <mxGeometry x="600" y="260" width="100" height="60" as="geometry" />
        </mxCell>
        <mxCell id="F-baasyLwbSTFGvHI9Eg-3" value="IR Emitter LED" style="shape=parallelogram;html=1;strokeWidth=2;perimeter=parallelogramPerimeter;whiteSpace=wrap;rounded=1;arcSize=12;size=0.23;" parent="1" vertex="1">
          <mxGeometry x="90" y="190" width="150" height="76" as="geometry" />
        </mxCell>
        <mxCell id="F-baasyLwbSTFGvHI9Eg-14" style="edgeStyle=none;rounded=1;orthogonalLoop=1;jettySize=auto;html=1;exitX=1;exitY=0.5;exitDx=0;exitDy=0;strokeWidth=4;entryX=0;entryY=0.5;entryDx=0;entryDy=0;" parent="1" source="F-baasyLwbSTFGvHI9Eg-4" target="pE9QGoENINegHeJZkaK3-1" edge="1">
          <mxGeometry relative="1" as="geometry">
            <mxPoint x="300" y="270" as="targetPoint" />
          </mxGeometry>
        </mxCell>
        <mxCell id="F-baasyLwbSTFGvHI9Eg-4" value="IR Receiver" style="shape=parallelogram;html=1;strokeWidth=2;perimeter=parallelogramPerimeter;whiteSpace=wrap;rounded=1;arcSize=12;size=0.23;" parent="1" vertex="1">
          <mxGeometry x="90" y="280" width="150" height="70" as="geometry" />
        </mxCell>
        <mxCell id="F-baasyLwbSTFGvHI9Eg-7" value="Speaker" style="shape=parallelogram;html=1;strokeWidth=2;perimeter=parallelogramPerimeter;whiteSpace=wrap;rounded=1;arcSize=12;size=0.23;" parent="1" vertex="1">
          <mxGeometry x="270" y="100" width="150" height="90" as="geometry" />
        </mxCell>
        <mxCell id="F-baasyLwbSTFGvHI9Eg-12" style="orthogonalLoop=1;jettySize=auto;html=1;exitX=0.25;exitY=1;exitDx=0;exitDy=0;entryX=1;entryY=0;entryDx=0;entryDy=0;strokeWidth=4;rounded=1;" parent="1" source="F-baasyLwbSTFGvHI9Eg-9" target="F-baasyLwbSTFGvHI9Eg-1" edge="1">
          <mxGeometry relative="1" as="geometry" />
        </mxCell>
        <mxCell id="F-baasyLwbSTFGvHI9Eg-9" value="Trigger, reload and/or&lt;br&gt;config Buttons" style="shape=parallelogram;html=1;strokeWidth=2;perimeter=parallelogramPerimeter;whiteSpace=wrap;rounded=1;arcSize=12;size=0.23;" parent="1" vertex="1">
          <mxGeometry x="470" y="100" width="170" height="90" as="geometry" />
        </mxCell>
        <mxCell id="F-baasyLwbSTFGvHI9Eg-10" value="Visible LED&lt;br&gt;as indicators" style="shape=parallelogram;html=1;strokeWidth=2;perimeter=parallelogramPerimeter;whiteSpace=wrap;rounded=1;arcSize=12;size=0.23;" parent="1" vertex="1">
          <mxGeometry x="220" y="380" width="160" height="80" as="geometry" />
        </mxCell>
        <mxCell id="F-baasyLwbSTFGvHI9Eg-17" value="NE555 IR Emitter device" style="rounded=1;whiteSpace=wrap;html=1;absoluteArcSize=1;arcSize=14;strokeWidth=2;fillColor=#dae8fc;strokeColor=#6c8ebf;" parent="1" vertex="1">
          <mxGeometry x="330" y="230" width="60" height="50" as="geometry" />
        </mxCell>
        <mxCell id="F-baasyLwbSTFGvHI9Eg-19" value="&lt;font style=&quot;font-size: 14px&quot;&gt;Raspberry Pi&lt;/font&gt;" style="text;html=1;strokeColor=none;fillColor=none;align=center;verticalAlign=middle;whiteSpace=wrap;rounded=0;dashed=1;" parent="1" vertex="1">
          <mxGeometry x="505" y="330" width="100" height="20" as="geometry" />
        </mxCell>
        <mxCell id="F-baasyLwbSTFGvHI9Eg-21" style="edgeStyle=none;rounded=1;orthogonalLoop=1;jettySize=auto;html=1;exitX=0.25;exitY=0;exitDx=0;exitDy=0;entryX=0.75;entryY=1;entryDx=0;entryDy=0;strokeWidth=4;startArrow=classic;startFill=1;" parent="1" source="F-baasyLwbSTFGvHI9Eg-20" target="F-baasyLwbSTFGvHI9Eg-1" edge="1">
          <mxGeometry relative="1" as="geometry" />
        </mxCell>
        <mxCell id="F-baasyLwbSTFGvHI9Eg-20" value="BLE/Wifi for configuration" style="shape=parallelogram;perimeter=parallelogramPerimeter;whiteSpace=wrap;html=1;fixedSize=1;dashed=1;fillColor=none;strokeWidth=2;" parent="1" vertex="1">
          <mxGeometry x="440" y="390" width="170" height="60" as="geometry" />
        </mxCell>
        <mxCell id="pE9QGoENINegHeJZkaK3-1" value="Vishay TSDP34138 IR receiver" style="rounded=1;whiteSpace=wrap;html=1;absoluteArcSize=1;arcSize=14;strokeWidth=2;fillColor=#dae8fc;strokeColor=#6c8ebf;" vertex="1" parent="1">
          <mxGeometry x="330" y="290" width="80" height="60" as="geometry" />
        </mxCell>
      </root>
    </mxGraphModel>
  </diagram>
</mxfile>
